<svg width="40" height="40" viewBox="0 0 40 40" fill="none" xmlns="http://www.w3.org/2000/svg">
<path opacity="0.4" d="M30.5833 32.8C29.6666 35.15 27.4333 36.6667 24.9166 36.6667H15.0833C12.55 36.6667 10.3333 35.15 9.41663 32.8C8.49997 30.4333 9.1333 27.8167 11 26.1167L17.75 20H22.2666L29 26.1167C30.8666 27.8167 31.4833 30.4333 30.5833 32.8Z" fill="#003CFF"/>
<path d="M23.0335 30.2335H16.9668C16.3335 30.2335 15.8335 29.7168 15.8335 29.1001C15.8335 28.4668 16.3502 27.9668 16.9668 27.9668H23.0335C23.6668 27.9668 24.1668 28.4835 24.1668 29.1001C24.1668 29.7168 23.6502 30.2335 23.0335 30.2335Z" fill="#003CFF"/>
<path d="M30.5833 7.20016C29.6666 4.85016 27.4333 3.3335 24.9166 3.3335H15.0833C12.5666 3.3335 10.3333 4.85016 9.41661 7.20016C8.51661 9.56683 9.13328 12.1835 11.0166 13.8835L17.7499 20.0002H22.2666L28.9999 13.8835C30.8666 12.1835 31.4833 9.56683 30.5833 7.20016ZM23.0333 12.0502H16.9666C16.3333 12.0502 15.8333 11.5335 15.8333 10.9168C15.8333 10.3002 16.3499 9.7835 16.9666 9.7835H23.0333C23.6666 9.7835 24.1666 10.3002 24.1666 10.9168C24.1666 11.5335 23.6499 12.0502 23.0333 12.0502Z" fill="#003CFF"/>
</svg>
