<svg width="20" height="20" viewBox="0 0 20 20" fill="none" xmlns="http://www.w3.org/2000/svg">
<path d="M17.5 5.60839C17.4833 5.60839 17.4583 5.60839 17.4333 5.60839C13.025 5.16673 8.62499 5.00006 4.26666 5.44173L2.56666 5.60839C2.21666 5.64173 1.90832 5.39173 1.87499 5.04173C1.84166 4.69173 2.09166 4.39173 2.43332 4.35839L4.13332 4.19173C8.56666 3.74173 13.0583 3.91673 17.5583 4.35839C17.9 4.39173 18.15 4.70006 18.1167 5.04173C18.0917 5.36673 17.8167 5.60839 17.5 5.60839Z" fill="#1D1929"/>
<path d="M7.08332 4.76675C7.04999 4.76675 7.01665 4.76675 6.97499 4.75842C6.64165 4.70008 6.40832 4.37508 6.46665 4.04175L6.64999 2.95008C6.78332 2.15008 6.96665 1.04175 8.90832 1.04175H11.0917C13.0417 1.04175 13.225 2.19175 13.35 2.95841L13.5333 4.04175C13.5917 4.38342 13.3583 4.70842 13.025 4.75842C12.6833 4.81675 12.3583 4.58342 12.3083 4.25008L12.125 3.16675C12.0083 2.44175 11.9833 2.30008 11.1 2.30008H8.91665C8.03332 2.30008 8.01665 2.41675 7.89165 3.15841L7.69999 4.24175C7.64999 4.55008 7.38332 4.76675 7.08332 4.76675Z" fill="#1D1929"/>
<path d="M12.675 18.9584H7.325C4.41666 18.9584 4.3 17.3501 4.20833 16.0501L3.66666 7.6584C3.64166 7.31673 3.90833 7.01673 4.25 6.99173C4.6 6.97506 4.89166 7.2334 4.91666 7.57506L5.45833 15.9667C5.55 17.2334 5.58333 17.7084 7.325 17.7084H12.675C14.425 17.7084 14.4583 17.2334 14.5417 15.9667L15.0833 7.57506C15.1083 7.2334 15.4083 6.97506 15.75 6.99173C16.0917 7.01673 16.3583 7.3084 16.3333 7.6584L15.7917 16.0501C15.7 17.3501 15.5833 18.9584 12.675 18.9584Z" fill="#1D1929"/>
<path d="M11.3833 14.375H8.60834C8.26667 14.375 7.98334 14.0917 7.98334 13.75C7.98334 13.4083 8.26667 13.125 8.60834 13.125H11.3833C11.725 13.125 12.0083 13.4083 12.0083 13.75C12.0083 14.0917 11.725 14.375 11.3833 14.375Z" fill="#1D1929"/>
<path d="M12.0833 11.0417H7.91666C7.57499 11.0417 7.29166 10.7584 7.29166 10.4167C7.29166 10.0751 7.57499 9.79175 7.91666 9.79175H12.0833C12.425 9.79175 12.7083 10.0751 12.7083 10.4167C12.7083 10.7584 12.425 11.0417 12.0833 11.0417Z" fill="#1D1929"/>
</svg>
