<svg width="12" height="12" viewBox="0 0 12 12" fill="none" xmlns="http://www.w3.org/2000/svg">
<circle cx="6" cy="6" r="6" fill="white"/>
<path d="M6 0.75C3.0975 0.75 0.75 3.0975 0.75 6C0.75 7.0875 1.0725 8.085 1.6275 8.9175C2.4375 10.1175 3.72 10.965 5.2125 11.1825C5.4675 11.2275 5.73 11.25 6 11.25C6.27 11.25 6.5325 11.2275 6.7875 11.1825C8.28 10.965 9.5625 10.1175 10.3725 8.9175C10.9275 8.085 11.25 7.0875 11.25 6C11.25 3.0975 8.9025 0.75 6 0.75ZM8.295 5.835L7.6725 6.4575C7.5675 6.5625 7.5075 6.765 7.545 6.915L7.725 7.6875C7.8675 8.295 7.545 8.535 7.005 8.2125L6.255 7.77C6.12 7.6875 5.895 7.6875 5.76 7.77L5.01 8.2125C4.47 8.5275 4.1475 8.295 4.29 7.6875L4.47 6.915C4.5 6.7725 4.4475 6.5625 4.3425 6.4575L3.705 5.835C3.3375 5.4675 3.4575 5.1 3.9675 5.0175L4.77 4.8825C4.905 4.86 5.0625 4.74 5.1225 4.62L5.565 3.735C5.805 3.255 6.195 3.255 6.435 3.735L6.8775 4.62C6.9375 4.74 7.095 4.86 7.2375 4.8825L8.04 5.0175C8.5425 5.1 8.6625 5.4675 8.295 5.835Z" fill="#DC0E51"/>
</svg>
