<svg width="32" height="32" viewBox="0 0 32 32" fill="none" xmlns="http://www.w3.org/2000/svg">
<path opacity="0.4" d="M27.3334 13.5867H23.48C20.32 13.5867 17.7467 11.0134 17.7467 7.85341V4.00008C17.7467 3.26675 17.1467 2.66675 16.4134 2.66675H10.76C6.65337 2.66675 3.33337 5.33342 3.33337 10.0934V21.9067C3.33337 26.6667 6.65337 29.3334 10.76 29.3334H21.24C25.3467 29.3334 28.6667 26.6667 28.6667 21.9067V14.9201C28.6667 14.1867 28.0667 13.5867 27.3334 13.5867Z" fill="#1D1929"/>
<path d="M21.0667 2.94658C20.52 2.39991 19.5734 2.77324 19.5734 3.53324V8.18658C19.5734 10.1332 21.2267 11.7466 23.24 11.7466C24.5067 11.7599 26.2667 11.7599 27.7734 11.7599C28.5334 11.7599 28.9334 10.8666 28.4 10.3332C26.48 8.39991 23.04 4.91991 21.0667 2.94658Z" fill="#1D1929"/>
<path d="M18 18.3333H10C9.45333 18.3333 9 17.8799 9 17.3333C9 16.7866 9.45333 16.3333 10 16.3333H18C18.5467 16.3333 19 16.7866 19 17.3333C19 17.8799 18.5467 18.3333 18 18.3333Z" fill="#1D1929"/>
<path d="M15.3333 23.6667H10C9.45333 23.6667 9 23.2134 9 22.6667C9 22.1201 9.45333 21.6667 10 21.6667H15.3333C15.88 21.6667 16.3333 22.1201 16.3333 22.6667C16.3333 23.2134 15.88 23.6667 15.3333 23.6667Z" fill="#1D1929"/>
</svg>
