<svg width="30" height="30" viewBox="0 0 30 30" fill="none" xmlns="http://www.w3.org/2000/svg">
<path d="M12.7903 23.1023L6.89778 17.2097C4.29916 14.6111 4.29916 13.0319 6.89778 10.4333L7.19241 10.1386C7.434 9.89705 7.8347 9.89705 8.07629 10.1386C8.64198 10.7043 9.573 10.7043 10.1387 10.1386C10.7044 9.57296 10.7044 8.64194 10.1387 8.07625C9.89709 7.83466 9.89709 7.43396 10.1387 7.19237L10.4333 6.89774C13.0319 4.29912 14.6111 4.29912 17.2098 6.89774L23.1023 12.7903C25.7009 15.3889 25.7009 16.9681 23.1023 19.5667L22.5131 20.156C22.2715 20.3976 21.8708 20.3976 21.6292 20.156C21.0635 19.5903 20.1325 19.5903 19.5668 20.156C19.0011 20.7217 19.0011 21.6527 19.5668 22.2184C19.8084 22.46 19.8084 22.8607 19.5668 23.1023C16.9682 25.7009 15.389 25.7009 12.7903 23.1023ZM7.68738 11.4114C5.67213 13.4503 5.70748 14.2517 7.78166 16.3258L13.6742 22.2184C15.6423 24.1865 16.4673 24.3161 18.2881 22.6014C17.6458 21.5584 17.7813 20.1737 18.6829 19.2721C19.5845 18.3705 20.9751 18.2409 22.0181 18.8832L22.2184 18.6829C24.3221 16.5792 24.3221 15.7778 22.2184 13.6742L16.3259 7.78163C14.2517 5.70745 13.4503 5.67209 11.4115 7.68734C12.0538 8.73033 11.9241 10.121 11.0226 11.0225C10.121 11.9241 8.73036 12.0537 7.68738 11.4114Z" fill="#DC0E51"/>
<path d="M14.4813 19.0542C14.1514 18.7242 14.1514 18.1939 14.4754 17.8698C14.7995 17.5457 15.3299 17.5457 15.654 17.8698C15.978 18.1939 15.978 18.7242 15.654 19.0483C15.3299 19.3724 14.8113 19.3842 14.4813 19.0542Z" fill="#DC0E51"/>
<path d="M13.8922 12.5722C13.5622 12.2423 13.5622 11.7119 13.8863 11.3878C14.2104 11.0637 14.7408 11.0637 15.0648 11.3878C15.3889 11.7119 15.3889 12.2423 15.0648 12.5664C14.7408 12.8904 14.2222 12.9022 13.8922 12.5722Z" fill="#DC0E51"/>
<path d="M10.4039 15.6248C10.2919 15.5128 10.2212 15.3596 10.2212 15.1828C10.2212 14.841 10.5041 14.5582 10.8458 14.5582H18.7772C19.119 14.5582 19.4018 14.841 19.4018 15.1828C19.4018 15.5246 19.119 15.8074 18.7772 15.8074L10.8458 15.8074C10.6749 15.8133 10.5158 15.7367 10.4039 15.6248Z" fill="#DC0E51"/>
</svg>
